<?xml version="1.0" encoding="iso-8859-1"?>
<!-- Generator: Adobe Illustrator 18.0.0, SVG Export Plug-In . SVG Version: 6.00 Build 0)  -->
<!DOCTYPE svg PUBLIC "-//W3C//DTD SVG 1.1//EN" "http://www.w3.org/Graphics/SVG/1.1/DTD/svg11.dtd">
<svg version="1.1" id="Capa_1" xmlns="http://www.w3.org/2000/svg" xmlns:xlink="http://www.w3.org/1999/xlink" x="0px" y="0px"
	 viewBox="0 0 440.558 440.558" style="enable-background:new 0 0 440.558 440.558;" xml:space="preserve">
<path d="M435.558,331.958h-65.163c-10.184-36.348-7.62-67.134,7.635-91.552c11.738-18.789,27.073-26.658,27.215-26.73
	c2.042-1.015,3.139-3.282,2.667-5.514c-0.472-2.23-2.393-3.859-4.672-3.96c-25.136-1.101-47.288,10.525-64.057,33.637
	c-2.922,4.027-5.435,8.061-7.575,11.884c4.524-71.585,40.077-117.529,40.473-118.031c1.332-1.684,1.441-4.03,0.27-5.83
	c-1.171-1.8-3.362-2.649-5.44-2.113c-42.862,11.067-68.467,67.392-80.383,101.943c-6.287-54.052-26.563-74.909-27.556-75.898
	c-1.682-1.679-4.313-1.94-6.294-0.627c-1.98,1.314-2.763,3.84-1.871,6.043c8.229,20.33,1.509,65.935-4.75,97.516
	c-5.757-51.809-18.768-70.109-19.423-71.001c-1.259-1.712-3.463-2.441-5.491-1.819c-2.031,0.621-3.448,2.458-3.533,4.581
	c-0.906,22.573-10.888,50.064-17.893,66.802c-3.631-37.56,3.037-93.151,24.909-115.452c1.363-1.39,1.796-3.443,1.109-5.265
	c-0.687-1.821-2.367-3.078-4.309-3.223c-0.599-0.044-14.831-0.939-30.172,12.1c-15.056,12.795-25.774,33.915-32.003,62.975
	c-10.039-41.707-25.785-71.541-46.96-88.882c-19.915-16.31-37.29-14.955-38.019-14.887c-2.038,0.184-3.759,1.59-4.343,3.551
	c-0.585,1.961,0.084,4.08,1.688,5.35c28.446,22.513,45.388,90.571,53.196,157.801c-14.021-29.961-32.042-45.68-46.5-53.902
	c-21.858-12.432-40.418-11.015-41.199-10.951c-2.03,0.174-3.753,1.561-4.354,3.508c-0.602,1.946,0.039,4.063,1.619,5.351
	c31.612,25.762,49.684,55.596,52.261,86.277c1.471,17.508-2.478,30.802-4.527,36.32H5c-2.762,0-5,2.238-5,5c0,2.762,2.238,5,5,5
	h430.558c2.762,0,5-2.238,5-5C440.558,334.196,438.319,331.958,435.558,331.958z M96.657,295.422
	c-1.648-21.163-10.898-51.948-44.13-83.434c5.881,1.33,13.108,3.758,20.844,8.157c25.938,14.751,45.042,44.82,55.248,86.957
	c0.61,2.522,3.053,4.151,5.61,3.767c2.564-0.39,4.404-2.675,4.239-5.263c-2.281-35.602-12.273-147.086-49.24-194.225
	c18.759,7.132,51.274,32.291,65.701,120.38c0.405,2.471,2.587,4.255,5.079,4.189c2.503-0.072,4.566-1.985,4.828-4.476
	c5.307-50.523,20.449-73.471,32.218-83.824c4.247-3.736,8.326-6.127,11.866-7.654c-20.561,33.533-24.055,95.76-16.462,129.857
	c0.461,2.065,2.171,3.618,4.272,3.876c2.099,0.259,4.136-0.836,5.081-2.728c0.838-1.676,17.583-35.479,23.672-68.277
	c5.148,14.609,11.526,41.076,12.973,84.64c0.082,2.482,1.975,4.528,4.443,4.803c2.472,0.278,4.765-1.303,5.392-3.707
	c0.865-3.316,17.266-66.869,16.176-110.142c6.542,15.408,13.299,39.867,13.863,75.776c0.039,2.525,1.956,4.625,4.467,4.894
	c2.504,0.269,4.828-1.377,5.401-3.837c0.228-0.974,21.194-88.787,66.7-115.617c-3.984,6.703-8.806,15.7-13.559,26.768
	c-10.144,23.617-21.85,61.55-20.012,108.137c0.097,2.449,1.956,4.466,4.389,4.764c2.434,0.294,4.725-1.214,5.41-3.569
	c0.047-0.162,4.869-16.464,16.313-32.144c10.787-14.78,23.536-24.025,38.051-27.632c-5.012,4.615-10.583,10.789-15.625,18.747
	c-11.605,18.316-22.375,49.847-9.819,97.355H92.7C95.072,324.478,97.919,311.63,96.657,295.422z"/>
<g>
</g>
<g>
</g>
<g>
</g>
<g>
</g>
<g>
</g>
<g>
</g>
<g>
</g>
<g>
</g>
<g>
</g>
<g>
</g>
<g>
</g>
<g>
</g>
<g>
</g>
<g>
</g>
<g>
</g>
</svg>
